<?xml version="1.0" standalone="no"?>
<!DOCTYPE svg PUBLIC "-//W3C//DTD SVG 20010904//EN"
 "http://www.w3.org/TR/2001/REC-SVG-20010904/DTD/svg10.dtd">
<svg version="1.0" xmlns="http://www.w3.org/2000/svg"
 width="1125.000000pt" height="1115.000000pt" viewBox="0 0 1125.000000 1115.000000"
 preserveAspectRatio="xMidYMid meet">

<g transform="translate(0.000000,1115.000000) scale(0.100000,-0.100000)"
fill="#000000" stroke="none">
<path d="M7535 10423 c-44 -5 -88 -25 -108 -48 -14 -16 -17 -33 -14 -91 4 -76
22 -113 66 -134 13 -6 21 -13 18 -16 -3 -3 5 -16 18 -30 35 -37 100 -34 167
10 91 58 118 98 118 175 0 39 -5 55 -20 68 -11 10 -20 22 -20 28 0 22 -147 47
-225 38z m93 -59 c96 -10 151 -75 104 -121 -11 -10 -22 -26 -25 -36 -5 -13
-13 -17 -28 -12 -24 8 -59 -19 -59 -47 0 -29 -20 -21 -69 30 -54 56 -91 106
-91 124 0 6 12 25 27 40 29 30 42 32 141 22z"/>
<path d="M7521 10341 c-9 -6 -10 -11 -2 -15 13 -8 31 1 31 15 0 11 -11 11 -29
0z"/>
<path d="M7585 10330 c-3 -5 1 -10 9 -10 9 0 16 5 16 10 0 6 -4 10 -9 10 -6 0
-13 -4 -16 -10z"/>
<path d="M7650 10320 c0 -5 9 -10 20 -10 11 0 20 5 20 10 0 6 -9 10 -20 10
-11 0 -20 -4 -20 -10z"/>
<path d="M7510 10283 c1 -5 12 -21 25 -38 20 -24 25 -26 25 -12 0 27 -19 57
-35 57 -8 0 -15 -3 -15 -7z"/>
<path d="M7587 10283 c-2 -4 -1 -17 3 -28 7 -19 8 -19 15 -2 8 18 -9 46 -18
30z"/>
<path d="M7640 10259 c-7 -11 -9 -23 -6 -26 7 -8 56 25 56 37 0 19 -39 10 -50
-11z"/>
<path d="M5772 10383 c-25 -3 -36 -11 -43 -31 -25 -64 -53 -112 -80 -138 l-30
-29 -38 43 c-21 23 -43 42 -50 42 -8 0 -10 7 -6 19 3 10 1 30 -4 45 -9 22 -17
26 -49 26 -63 0 -76 -16 -69 -86 3 -32 10 -78 15 -102 15 -66 -18 -74 -94 -21
-49 34 -127 41 -138 13 -11 -28 -6 -80 9 -100 8 -10 15 -33 15 -51 0 -25 8
-37 38 -59 22 -16 47 -42 58 -59 35 -57 54 -98 48 -106 -2 -4 2 -25 11 -45 8
-20 15 -38 15 -40 0 -2 -363 -5 -807 -6 -750 -3 -813 -4 -883 -22 -134 -33
-291 -105 -357 -163 -87 -77 -193 -182 -193 -192 0 -6 -4 -11 -8 -11 -11 0
-68 -87 -98 -149 -53 -108 -69 -161 -94 -316 -6 -35 -10 -389 -10 -867 0 -720
-2 -808 -16 -822 -8 -9 -24 -16 -33 -16 -10 0 -24 -6 -30 -14 -7 -8 -29 -17
-51 -21 -21 -4 -46 -13 -57 -20 -28 -22 -79 -18 -103 7 -11 12 -20 27 -20 34
0 6 -7 14 -15 18 -8 3 -15 12 -15 19 0 8 -9 22 -20 32 -11 10 -20 22 -20 28 0
19 -124 197 -142 203 -23 7 -74 -4 -91 -20 -6 -7 -46 -30 -87 -51 -41 -22 -97
-54 -123 -73 -26 -18 -58 -37 -70 -43 -49 -21 -142 -87 -145 -101 -2 -9 17
-54 42 -100 78 -144 136 -268 136 -289 0 -12 -28 -47 -71 -87 -114 -107 -220
-214 -275 -277 -43 -49 -57 -59 -80 -57 -26 2 -131 47 -144 62 -8 9 -157 80
-168 80 -5 0 -15 7 -22 15 -7 8 -27 15 -44 15 -28 0 -35 -7 -81 -85 -27 -47
-56 -98 -64 -113 -8 -15 -20 -33 -28 -40 -7 -7 -13 -20 -13 -27 0 -7 -6 -20
-14 -27 -8 -8 -26 -37 -40 -64 -14 -27 -30 -56 -35 -64 -39 -69 -40 -74 -23
-95 17 -20 125 -95 137 -95 4 0 32 -18 64 -40 31 -22 62 -40 69 -40 7 0 12 -5
12 -10 0 -6 10 -15 23 -21 12 -6 30 -21 40 -35 18 -24 18 -27 -13 -117 -17
-51 -35 -113 -41 -139 -5 -26 -16 -60 -24 -75 -8 -15 -15 -41 -15 -58 0 -44
-37 -176 -52 -190 -19 -17 -176 -35 -306 -35 -103 0 -112 -2 -126 -22 -24 -34
-24 -559 0 -579 11 -9 70 -15 208 -19 157 -4 197 -8 218 -22 26 -17 29 -27 57
-198 5 -30 16 -73 25 -95 8 -22 15 -51 16 -63 0 -13 6 -36 14 -50 22 -42 52
-145 48 -167 -1 -11 -17 -30 -35 -41 -123 -82 -190 -124 -196 -124 -4 0 -16
-9 -26 -20 -10 -11 -22 -20 -27 -20 -5 0 -26 -12 -48 -26 -40 -26 -50 -50 -29
-71 12 -12 39 -61 69 -125 12 -26 28 -49 36 -52 8 -3 14 -12 14 -20 0 -8 6
-21 14 -29 8 -8 22 -29 30 -48 22 -48 77 -143 102 -176 20 -27 22 -27 65 -14
24 7 49 17 55 22 6 5 65 37 130 70 66 34 128 68 139 75 40 28 50 21 139 -91
45 -57 135 -146 191 -190 49 -39 135 -127 134 -139 0 -6 -24 -56 -53 -111
-105 -197 -137 -266 -131 -285 3 -10 27 -31 53 -47 26 -15 55 -32 64 -38 9 -5
59 -34 110 -63 51 -29 107 -61 123 -72 17 -11 41 -25 55 -32 14 -7 36 -20 49
-30 41 -31 72 -18 105 42 19 33 110 184 118 195 4 6 19 24 33 41 14 18 25 37
25 43 0 17 46 31 82 25 18 -3 56 -14 83 -24 28 -11 77 -26 110 -35 33 -9 83
-22 110 -30 28 -8 75 -17 105 -20 30 -4 72 -14 93 -22 31 -13 37 -21 39 -47 0
-17 2 -42 4 -56 1 -14 5 -97 9 -185 4 -88 12 -166 18 -172 11 -16 582 -19 591
-4 4 5 9 92 13 193 3 100 11 199 18 218 15 43 41 57 147 75 46 8 117 23 158
35 41 11 92 25 113 31 21 5 48 16 60 23 12 8 43 17 68 21 l46 7 56 -81 c30
-44 58 -89 62 -100 3 -10 12 -22 20 -25 8 -3 15 -10 15 -16 0 -6 8 -23 18 -38
11 -15 30 -44 43 -65 13 -20 32 -39 41 -42 18 -6 118 41 131 62 4 7 14 13 21
13 7 0 23 9 36 20 13 11 27 20 32 20 5 0 24 11 41 24 18 13 48 31 67 40 19 9
49 25 65 36 17 11 47 27 68 36 23 10 39 25 43 40 7 28 -13 96 -32 107 -8 4
-14 16 -14 26 0 10 -9 30 -20 44 -11 14 -20 29 -20 34 0 5 -15 38 -34 73 -65
123 -77 98 164 340 l212 212 153 -78 c84 -44 164 -85 177 -91 66 -36 107 -6
176 128 51 100 63 122 81 143 35 41 112 197 109 218 -2 11 -21 30 -43 42 -49
26 -118 68 -125 76 -3 3 -24 18 -48 34 -31 21 -42 35 -40 50 l3 21 1270 5
c699 3 1271 6 1273 8 8 7 0 87 -12 119 -8 21 -17 50 -20 64 -4 16 -15 29 -28
33 -13 3 -1047 6 -2298 6 -2385 1 -2395 1 -2477 43 -18 10 -40 17 -49 17 -25
0 -174 102 -220 151 -21 23 -47 49 -56 57 -10 9 -18 22 -18 30 0 7 -6 15 -13
18 -12 4 -63 98 -104 189 -7 17 -17 60 -22 97 -5 37 -13 73 -17 79 -10 17 -13
3742 -3 3894 11 163 22 223 57 308 50 119 82 168 167 254 88 90 127 119 195
147 25 10 59 24 75 31 32 15 121 32 225 45 101 13 760 13 760 0 0 -6 -7 -13
-15 -16 -8 -3 -19 -23 -25 -44 -12 -44 -15 -281 -4 -325 8 -36 40 -102 51
-107 5 -2 19 -15 32 -30 21 -24 23 -37 27 -154 3 -125 4 -128 36 -176 32 -47
80 -84 123 -95 20 -6 72 -7 225 -4 47 1 134 1 194 1 80 0 115 3 131 14 25 17
111 16 155 -1 18 -7 62 -4 150 9 110 16 137 17 225 6 129 -16 293 -15 344 2
35 11 44 11 75 -4 30 -14 62 -16 197 -14 l161 3 48 -52 c25 -29 51 -53 57 -53
6 0 13 -5 15 -11 4 -11 72 -30 123 -34 17 -1 72 3 123 10 99 14 131 31 199
102 l33 34 49 -48 c26 -26 57 -69 68 -94 l20 -46 63 -6 c101 -11 119 -9 158
21 69 51 102 94 102 134 0 20 4 39 8 42 4 2 88 7 186 11 173 6 181 7 230 35
43 25 78 59 81 80 0 3 6 15 13 28 7 12 10 27 7 32 -3 6 -2 10 4 10 16 0 6 247
-12 295 -8 22 -21 90 -28 150 -11 104 -14 112 -46 143 -18 18 -33 37 -33 42 0
5 -12 15 -27 22 -16 8 -37 19 -48 25 -55 29 -77 35 -107 30 -34 -5 -68 10 -68
32 0 8 175 11 668 11 564 0 677 -2 718 -15 27 -8 62 -15 78 -15 27 0 25 3 -40
63 -38 35 -100 92 -139 125 l-70 62 -977 0 c-595 0 -979 4 -983 9 -3 5 -7 35
-10 66 -2 31 -7 65 -11 77 -9 31 -105 168 -126 181 -10 7 -18 17 -18 24 0 7
-4 13 -10 13 -5 0 -10 8 -10 17 0 9 -3 13 -6 10 -4 -3 -32 13 -63 37 -84 66
-181 97 -316 102 -61 2 -135 -1 -165 -7 -30 -5 -77 -14 -105 -19 -41 -8 -60
-6 -106 10 -47 16 -67 18 -114 10 -32 -5 -61 -7 -66 -5 -11 7 -161 -14 -182
-26 -26 -14 -31 -5 -18 32 15 43 14 134 -1 146 -15 10 -48 12 -96 6z m56 -77
c-4 -28 -48 -36 -48 -9 0 11 5 24 11 30 17 17 40 4 37 -21z m-358 -11 c0 -8
-4 -15 -10 -15 -5 0 -10 7 -10 15 0 8 5 15 10 15 6 0 10 -7 10 -15z m326 -147
c-7 -109 -6 -112 11 -92 30 34 99 83 150 106 71 32 218 32 287 0 l50 -22 90
26 c130 39 246 37 374 -5 135 -45 222 -116 313 -256 33 -49 64 -96 71 -104 18
-22 34 -275 19 -304 -7 -13 -11 -38 -9 -56 2 -28 9 -35 40 -46 20 -6 42 -9 49
-4 7 4 17 5 21 3 5 -3 21 9 36 27 15 18 35 40 45 48 21 19 23 35 2 28 -8 -4
-17 -2 -20 3 -5 9 36 24 90 34 17 3 105 8 196 12 145 5 172 4 203 -11 37 -18
45 -30 24 -37 -7 -3 4 -24 30 -55 42 -49 45 -50 106 -55 42 -4 78 -14 110 -32
70 -39 116 -78 116 -99 0 -10 9 -39 21 -64 17 -37 19 -56 14 -107 -5 -47 -3
-72 10 -102 22 -53 31 -190 16 -237 -16 -46 -79 -101 -136 -117 -24 -7 -70
-11 -102 -9 -32 2 -78 0 -103 -5 -25 -4 -63 -3 -85 2 -37 8 -139 2 -149 -9 -2
-2 -7 -18 -10 -34 -6 -28 -3 -33 29 -48 44 -21 44 -49 0 -57 -19 -3 -31 -12
-33 -25 -8 -40 -23 -48 -48 -24 -18 17 -26 19 -42 10 -12 -6 -28 -11 -38 -11
-14 0 -16 7 -10 39 5 35 3 40 -16 47 -13 4 -24 5 -25 3 -4 -11 -53 47 -53 64
0 18 5 19 48 13 26 -3 59 -9 74 -12 19 -4 29 -1 36 13 10 17 3 18 -138 18
l-149 0 -64 -66 c-46 -48 -77 -71 -112 -83 -112 -38 -230 -3 -289 84 -21 32
-31 37 -108 54 -71 15 -89 16 -109 5 -29 -15 -156 -23 -184 -11 -99 44 -91 43
-137 23 -90 -38 -141 -46 -216 -31 -50 9 -111 11 -223 5 -234 -11 -279 -11
-341 4 -54 13 -61 12 -141 -13 -88 -28 -104 -28 -184 1 -38 14 -46 14 -83 -1
-63 -25 -202 -22 -252 6 -69 39 -82 73 -88 231 l-5 137 -46 40 c-63 53 -79 97
-79 215 0 86 3 99 26 135 15 22 42 49 60 61 19 11 32 24 29 28 -5 8 220 21
374 21 79 0 92 -2 82 -14 -9 -11 -3 -19 33 -40 25 -15 49 -33 54 -42 5 -9 42
-23 92 -33 74 -16 89 -17 123 -5 22 8 47 14 56 14 49 0 89 22 121 66 24 34 30
48 20 54 -17 10 4 100 31 131 14 16 16 25 8 30 -12 7 -16 30 -23 117 -2 23 -6
45 -8 48 -3 2 -1 24 5 48 5 24 7 60 3 81 -7 36 -8 37 -44 30 -20 -4 -39 -9
-42 -11 -2 -3 -4 -39 -4 -79 0 -100 -22 -110 -28 -14 -3 38 -8 72 -11 75 -3 3
-32 -9 -66 -25 -49 -25 -61 -36 -61 -56 0 -13 5 -27 10 -30 6 -3 10 -1 10 6 0
7 3 10 6 6 4 -3 4 -13 1 -21 -9 -22 -37 -8 -38 18 -1 16 -3 15 -9 -8 -11 -35
-5 -47 17 -39 10 4 14 2 11 -7 -2 -7 -16 -14 -31 -16 -26 -2 -27 -1 -27 42 0
24 -4 44 -10 44 -5 0 -10 9 -10 20 0 12 -17 44 -38 73 -21 29 -46 65 -55 80
-10 15 -25 26 -34 25 -19 -3 -36 55 -21 70 5 5 51 -6 114 -28 57 -21 106 -35
108 -31 2 3 -1 40 -7 82 -18 135 4 142 94 29 34 -44 64 -80 65 -80 1 0 32 45
68 100 90 136 101 134 92 -12z m-546 -18 c0 -5 -5 -10 -11 -10 -5 0 -7 5 -4
10 3 6 8 10 11 10 2 0 4 -4 4 -10z m150 -335 c0 -8 -2 -15 -4 -15 -2 0 -6 7
-10 15 -3 8 -1 15 4 15 6 0 10 -7 10 -15z m210 -61 c71 -1 80 -3 80 -19 0 -12
-17 -15 -95 -15 l-95 0 21 38 c12 20 24 42 27 47 4 6 9 -3 12 -20 5 -28 9 -30
50 -31z m-5 36 c3 -5 1 -10 -4 -10 -6 0 -11 5 -11 10 0 6 2 10 4 10 3 0 8 -4
11 -10z m-190 -30 c3 -5 1 -10 -4 -10 -6 0 -11 5 -11 10 0 6 2 10 4 10 3 0 8
-4 11 -10z m215 -274 c0 -50 -94 -82 -208 -70 -53 5 -66 11 -88 37 -20 23 -22
32 -12 38 7 5 79 9 161 9 119 0 147 -3 147 -14z m-2702 -3544 c2 -568 2 -583
-18 -622 -11 -22 -25 -40 -30 -40 -6 0 -10 -5 -10 -10 0 -6 -9 -23 -20 -38
-44 -59 -79 -190 -91 -332 -6 -74 -17 -157 -24 -185 -16 -60 -58 -148 -91
-192 -13 -17 -24 -35 -24 -40 -1 -11 -101 -83 -117 -83 -7 0 -13 -5 -13 -10 0
-6 -8 -14 -17 -18 -17 -7 -72 -38 -240 -139 -70 -41 -76 -43 -153 -43 -69 0
-89 4 -138 29 -60 30 -132 99 -132 126 0 9 -6 26 -14 38 -30 48 -41 177 -41
472 0 237 3 305 18 374 9 46 21 89 26 95 5 6 12 30 16 53 3 23 13 47 21 54 8
6 14 19 14 28 0 9 9 33 20 54 11 20 20 43 20 50 0 7 20 51 45 97 25 47 50 97
56 113 6 15 15 27 20 27 5 0 9 5 9 11 0 13 64 104 92 132 10 10 18 22 18 27 0
9 66 85 131 149 104 104 175 164 265 222 54 35 101 66 104 70 3 3 57 32 120
63 77 37 125 55 145 54 l30 -3 3 -583z m72 -1752 c30 -4 69 -15 85 -23 102
-53 268 -117 304 -117 8 0 22 -6 30 -14 9 -8 36 -22 61 -31 208 -76 300 -85
885 -85 291 0 483 -4 495 -10 26 -14 65 -87 80 -148 10 -43 10 -65 0 -114 -12
-53 -20 -67 -75 -122 -91 -90 -174 -157 -265 -211 -9 -6 -24 -18 -34 -28 -51
-50 -444 -217 -514 -217 -15 0 -36 -6 -47 -14 -11 -7 -49 -17 -85 -21 -36 -4
-92 -13 -125 -21 -81 -18 -350 -18 -430 0 -33 8 -87 17 -120 21 -33 4 -76 13
-95 20 -19 7 -50 16 -67 19 -45 8 -262 91 -303 117 -8 5 -26 14 -39 19 -24 11
-142 80 -151 90 -3 3 -12 10 -22 15 -115 70 -298 224 -298 252 0 7 -6 16 -14
19 -41 16 -46 213 -6 266 11 15 20 30 20 34 0 18 86 81 155 114 28 13 56 30
63 36 6 7 21 16 32 19 11 3 20 10 20 15 0 5 9 12 21 15 11 4 54 26 94 50 80
48 192 77 255 68 19 -3 60 -9 90 -13z"/>
<path d="M5705 10094 c-22 -36 -48 -73 -59 -82 -21 -19 -11 -28 -88 82 -23 33
-44 54 -46 48 -2 -6 4 -46 12 -89 9 -42 13 -80 8 -85 -5 -5 -23 -1 -40 8 -56
28 -137 53 -140 44 -2 -5 18 -41 44 -79 l48 -69 66 33 c67 35 178 75 205 75 8
0 19 10 24 23 11 30 22 157 13 157 -4 0 -25 -30 -47 -66z"/>
<path d="M6030 10091 c-145 -45 -223 -173 -190 -313 15 -60 30 -89 73 -135
l30 -32 -27 -7 c-49 -12 -66 -47 -66 -135 0 -65 -3 -79 -15 -79 -9 0 -27 -11
-40 -25 -22 -21 -25 -33 -25 -90 0 -36 -2 -65 -4 -65 -2 0 -20 7 -39 15 -72
30 -184 8 -232 -45 -16 -18 -18 -17 -63 13 -41 28 -56 32 -122 34 l-75 2 -6
35 c-3 20 -14 45 -24 56 -17 19 -31 20 -212 20 l-195 0 -29 -29 c-27 -28 -29
-34 -29 -110 0 -44 4 -91 10 -105 10 -27 56 -56 90 -56 19 0 20 -6 21 -112 0
-62 2 -142 4 -178 5 -89 20 -100 131 -100 92 0 117 12 130 66 l7 26 36 -35
c55 -52 111 -70 178 -58 52 10 96 33 122 65 10 12 19 9 62 -19 51 -35 120 -52
161 -40 12 4 42 16 65 27 39 18 44 19 65 4 28 -20 108 -20 162 -1 35 12 43 12
70 -2 19 -10 55 -16 91 -16 75 0 135 29 173 83 41 61 92 67 92 11 0 -15 9 -37
20 -49 18 -19 31 -22 99 -22 69 0 80 3 100 24 l23 24 35 -24 c19 -13 51 -26
70 -30 36 -7 106 -1 134 11 14 5 18 -3 24 -47 10 -71 17 -83 65 -102 53 -21
92 -20 138 3 61 31 104 89 123 165 6 25 13 46 16 46 2 0 22 -14 43 -31 44 -35
63 -38 220 -26 47 4 114 7 150 6 36 0 78 4 92 10 20 7 37 6 68 -6 33 -13 49
-14 88 -5 26 5 77 8 113 5 73 -6 119 10 140 49 16 29 12 144 -5 177 -8 14 -18
74 -23 133 -8 94 -13 111 -38 143 -42 56 -101 78 -189 72 -39 -3 -81 -8 -93
-12 -22 -7 -23 -5 -23 53 0 51 -4 65 -22 82 -22 20 -31 21 -173 17 -89 -3
-161 -10 -177 -17 -29 -13 -48 -54 -48 -101 0 -15 -5 -31 -11 -35 -10 -6 -153
-13 -259 -13 -14 0 -60 0 -102 -1 -43 0 -78 2 -78 4 0 2 14 21 31 42 75 94
106 205 96 350 -4 70 -11 95 -43 161 -71 143 -204 247 -353 275 -110 20 -269
-5 -347 -57 -23 -15 -26 -14 -57 9 -67 50 -155 69 -227 47z m430 -116 c0 -4
-7 -20 -16 -36 -15 -29 -16 -30 -30 -12 -14 17 -14 17 -29 -1 -8 -11 -15 -25
-15 -32 0 -20 28 -24 46 -7 15 15 16 14 12 -8 -2 -18 -10 -25 -31 -27 -29 -4
-34 4 -39 51 -3 24 3 32 37 52 39 23 65 31 65 20z m253 -12 c28 -15 29 -18 12
-21 -11 -2 -25 -10 -31 -17 -8 -11 -14 -7 -27 20 -15 31 -15 35 -1 35 8 0 29
-8 47 -17z m-657 -28 c9 -8 27 -15 40 -15 14 0 32 7 40 15 24 23 37 18 30 -11
-9 -32 17 -74 44 -74 11 0 20 -7 20 -15 0 -8 -9 -15 -20 -15 -24 0 -44 -36
-42 -72 3 -31 -9 -36 -28 -13 -7 8 -25 15 -40 15 -15 0 -33 -7 -40 -15 -19
-23 -30 -18 -30 16 0 41 -16 69 -40 69 -11 0 -20 7 -20 15 0 8 8 15 18 15 21
0 45 38 42 66 -4 38 2 43 26 19z m740 -16 c38 -23 44 -39 14 -39 -11 0 -35 -6
-53 -13 -42 -17 -67 -11 -67 16 0 16 3 18 12 9 28 -28 75 -3 57 30 -13 23 -4
23 37 -3z m-202 5 c32 -12 15 -24 -34 -24 -70 0 -65 20 7 29 6 0 18 -2 27 -5z
m246 -156 c24 -40 25 -48 5 -48 -8 0 -15 5 -15 11 0 6 -9 24 -21 40 -17 24
-18 29 -5 29 9 0 25 -15 36 -32z m-532 -18 c-20 -35 -48 -54 -48 -32 0 18 41
72 55 72 13 0 12 -7 -7 -40z m260 17 c2 -12 -3 -17 -17 -17 -12 0 -21 6 -21
13 0 31 32 34 38 4z m58 2 c3 -6 2 -15 -2 -19 -12 -12 -38 5 -30 19 9 14 23
14 32 0z m-121 -19 c0 -7 -6 -15 -12 -17 -8 -3 -13 4 -13 17 0 13 5 20 13 18
6 -3 12 -11 12 -18z m171 -1 c10 -17 -13 -36 -27 -22 -12 12 -4 33 11 33 5 0
12 -5 16 -11z m-216 -29 c0 -11 -7 -20 -15 -20 -15 0 -21 21 -8 33 12 13 23 7
23 -13z m260 -26 c0 -8 -9 -14 -20 -14 -22 0 -28 26 -7 33 16 6 27 -1 27 -19z
m233 -84 c-1 -41 -6 -86 -12 -100 -8 -22 -10 -22 -10 -5 -1 12 -19 39 -41 60
-22 21 -40 42 -40 46 0 3 18 26 40 50 22 24 40 48 40 54 0 5 6 1 12 -10 7 -11
12 -53 11 -95z m-525 63 c-4 -22 -22 -20 -26 1 -2 10 3 16 13 16 10 0 15 -7
13 -17z m178 -29 c54 -53 -8 -130 -76 -94 -39 21 -32 102 10 114 32 8 42 5 66
-20z m134 1 c0 -8 -7 -15 -15 -15 -8 0 -15 7 -15 15 0 8 7 15 15 15 8 0 15 -7
15 -15z m-320 -31 c0 -16 -26 -19 -35 -4 -3 6 -4 14 0 20 8 13 35 1 35 -16z
m320 -24 c0 -11 -7 -20 -15 -20 -15 0 -21 21 -8 33 12 13 23 7 23 -13z m-320
-30 c0 -11 -7 -20 -15 -20 -8 0 -15 9 -15 20 0 11 7 20 15 20 8 0 15 -9 15
-20z m305 -20 c11 -17 -5 -32 -21 -19 -7 6 -11 15 -8 20 7 12 21 11 29 -1z
m-441 -9 c5 -8 -354 -22 -364 -14 -2 2 2 8 10 13 19 12 347 13 354 1z m162
-12 c10 -17 -13 -36 -27 -22 -12 12 -4 33 11 33 5 0 12 -5 16 -11z m254 -30
c0 -12 -29 -24 -37 -16 -3 4 -3 13 0 21 6 16 37 11 37 -5z m160 1 c0 -10 -27
-69 -36 -79 -1 -1 -7 0 -13 4 -7 4 -3 20 12 45 21 39 37 51 37 30z m-375 -21
c0 -7 -8 -15 -17 -17 -18 -3 -25 18 -11 32 10 10 28 1 28 -15z m165 -14 c0 -8
-7 -15 -15 -15 -8 0 -15 7 -15 15 0 8 7 15 15 15 8 0 15 -7 15 -15z m-112 -13
c2 -7 -6 -12 -17 -12 -21 0 -27 11 -14 24 9 9 26 2 31 -12z m58 7 c10 -17 -13
-36 -27 -22 -12 12 -4 33 11 33 5 0 12 -5 16 -11z m-468 -46 c-10 -2 -28 -2
-40 0 -13 2 -5 4 17 4 22 1 32 -1 23 -4z m692 -62 l34 -6 -51 -38 c-28 -20
-57 -37 -64 -37 -8 0 -29 -9 -47 -20 l-33 -20 15 27 c7 16 17 44 21 63 9 43
22 52 60 44 17 -3 46 -9 65 -13z m905 -36 l0 -50 -47 -3 -48 -3 0 49 c0 27 3
52 7 56 4 4 25 6 48 4 l40 -3 0 -50z m-171 37 c3 -5 6 -132 8 -283 l3 -274
-35 0 c-29 0 -36 4 -38 23 -4 29 -16 28 -36 -3 -13 -20 -25 -25 -56 -25 -44 0
-73 22 -92 68 -15 38 -20 226 -8 272 18 67 87 100 134 65 11 -8 23 -15 26 -15
4 0 5 36 2 81 -4 62 -1 83 9 90 18 11 76 12 83 1z m-1264 -36 c0 -15 -83 -26
-197 -26 -66 0 -74 2 -71 18 3 15 19 18 128 22 136 5 140 5 140 -14z m-346
-63 c3 -42 6 -170 6 -285 l0 -208 -46 0 -45 0 0 118 c0 64 -2 190 -5 279 l-6
161 23 5 c67 12 66 13 73 -70z m546 38 c0 -37 -62 -199 -95 -247 -28 -41 -28
-59 -2 -58 10 0 32 1 51 2 28 2 38 8 50 32 12 26 12 30 0 30 -21 0 -17 53 9
140 19 59 28 75 43 75 18 0 19 -9 19 -135 l0 -135 28 -3 c25 -3 27 -6 27 -53
0 -34 -4 -49 -12 -48 -34 4 -38 -2 -38 -56 0 -30 -4 -55 -9 -55 -5 0 -22 -3
-39 -6 l-31 -6 -3 58 -3 59 -80 3 c-44 2 -82 8 -86 14 -10 15 -3 60 33 213 53
228 42 205 93 205 43 0 45 -1 45 -29z m-1336 -67 c11 -85 12 -83 -51 -86 l-58
-3 -3 -63 c-2 -52 -6 -63 -18 -58 -9 3 -31 6 -50 6 -33 0 -34 2 -34 38 0 74
-5 79 -65 74 l-53 -4 -4 67 c-1 37 -1 69 1 71 2 2 77 4 166 4 l162 0 7 -46z
m1126 22 c0 -3 -4 -8 -10 -11 -5 -3 -10 -1 -10 4 0 6 5 11 10 11 6 0 10 -2 10
-4z m1724 -40 c35 -15 60 -58 54 -97 -4 -32 -65 -34 -95 -2 -27 28 -44 29 -68
3 -13 -14 -31 -20 -62 -20 -47 0 -47 0 -33 52 19 68 118 100 204 64z m-277
-204 l2 -203 -42 3 -42 3 -7 190 c-4 105 -5 196 -3 203 3 9 19 12 47 10 l43
-3 2 -203z m-858 178 c41 -20 71 -69 71 -114 0 -23 -4 -26 -34 -26 -25 0 -43
8 -64 30 -37 37 -56 38 -79 4 -20 -31 -21 -130 -2 -176 10 -25 16 -29 48 -26
31 3 37 8 46 36 8 29 13 32 47 32 36 0 38 -2 38 -31 0 -81 -68 -145 -144 -137
-57 7 -91 33 -116 90 -17 39 -20 63 -17 147 4 110 15 138 70 171 41 25 87 25
136 0z m202 -13 c4 -16 10 -55 13 -88 2 -32 8 -64 12 -71 4 -7 10 -28 13 -47
3 -18 11 -34 16 -34 12 0 21 49 30 152 9 119 10 121 62 121 l45 0 -6 -37 c-4
-21 -13 -58 -21 -83 -8 -25 -28 -114 -45 -198 -32 -166 -49 -212 -88 -242 -28
-22 -82 -26 -100 -8 -7 7 -12 29 -12 50 0 31 4 38 19 38 67 0 77 33 44 157
-35 132 -39 163 -22 175 11 8 10 9 -3 4 -10 -3 -21 0 -25 7 -14 22 -42 120
-37 129 3 5 26 8 52 6 41 -3 46 -6 53 -31z m-860 -3 c27 -14 59 -65 59 -94 0
-19 -82 -11 -106 11 -18 17 -26 19 -44 9 -14 -7 -20 -19 -18 -33 2 -16 16 -25
63 -39 78 -23 105 -53 105 -117 0 -67 -15 -104 -52 -126 -42 -25 -111 -24
-146 2 -29 21 -70 88 -60 98 3 3 22 9 42 12 32 5 38 3 43 -16 11 -41 83 -38
91 4 5 21 -7 30 -75 51 -66 21 -81 37 -95 106 -10 49 -9 59 8 89 11 19 31 40
45 46 34 18 104 16 140 -3z m-820 -27 c44 -33 59 -79 59 -179 0 -146 -38 -214
-122 -219 -87 -6 -138 42 -153 142 -7 45 -6 46 23 52 29 6 53 38 33 45 -5 2
-7 10 -4 18 12 31 22 10 28 -60 8 -84 27 -113 68 -102 32 8 47 45 47 120 0 49
-4 67 -20 84 -26 28 -66 29 -80 2 -14 -26 -100 -30 -100 -5 0 26 37 89 62 105
46 30 117 29 159 -3z m330 12 c48 -34 66 -82 68 -185 3 -104 -9 -143 -57 -188
-24 -23 -41 -29 -76 -30 -89 -2 -146 76 -146 201 0 69 1 73 23 73 18 0 19 -2
7 -10 -8 -5 -10 -10 -5 -10 6 1 19 7 29 15 19 14 18 15 -17 15 -27 0 -37 4
-37 15 0 30 40 94 68 109 40 22 108 20 143 -5z m2228 -113 c-2 -2 -24 -6 -49
-10 -31 -4 -40 -3 -30 4 13 9 89 15 79 6z m136 -138 c21 -12 21 -84 -1 -92
-28 -11 -51 -6 -78 15 l-26 20 -29 -20 c-40 -29 -101 -28 -128 2 -41 44 -37
143 7 182 15 14 19 15 15 4 -4 -12 3 -15 35 -14 45 1 50 -4 20 -23 -27 -16
-27 -68 -1 -82 41 -22 80 16 81 78 0 25 10 28 29 10 10 -11 11 -10 6 5 -6 13
-2 17 14 17 13 0 21 7 22 18 1 9 5 -12 10 -47 5 -41 14 -68 24 -73z m-3096 99
c9 4 13 3 10 -1 -4 -4 -16 -8 -28 -11 -14 -3 -21 1 -21 13 0 12 3 13 11 5 6
-6 19 -9 28 -6z m206 4 c3 -5 1 -12 -5 -16 -5 -3 -10 1 -10 9 0 18 6 21 15 7z
m-157 -48 c1 -27 5 -85 8 -129 l6 -82 -41 -4 c-23 -2 -46 -1 -50 2 -9 5 -15
97 -12 185 2 42 4 46 12 27 5 -13 13 -20 19 -17 5 3 10 1 10 -6 0 -8 4 -8 16
1 8 7 14 23 13 34 -2 29 0 36 9 36 5 0 9 -21 10 -47z m152 8 c0 -6 -4 -13 -10
-16 -5 -3 -10 1 -10 9 0 9 5 16 10 16 6 0 10 -4 10 -9z"/>
<path d="M6046 9881 c-25 -28 -17 -79 16 -104 24 -18 30 -18 58 -7 17 7 35 21
41 32 14 26 2 76 -21 88 -30 16 -75 12 -94 -9z"/>
<path d="M7386 9068 c-30 -43 -13 -171 24 -183 27 -9 60 12 61 38 1 12 3 46 5
76 3 45 0 56 -19 72 -30 25 -53 24 -71 -3z"/>
<path d="M7310 9050 c0 -5 9 -10 20 -10 11 0 20 5 20 10 0 6 -9 10 -20 10 -11
0 -20 -4 -20 -10z"/>
<path d="M7498 9053 c7 -3 16 -2 19 1 4 3 -2 6 -13 5 -11 0 -14 -3 -6 -6z"/>
<path d="M7530 9035 c0 -14 2 -25 4 -25 2 0 6 11 8 25 3 14 1 25 -3 25 -5 0
-9 -11 -9 -25z"/>
<path d="M7316 9013 c-12 -12 -6 -33 9 -33 8 0 15 6 15 14 0 17 -14 28 -24 19z"/>
<path d="M5870 9023 c0 -5 5 -15 11 -23 8 -11 12 -12 16 -2 2 6 11 12 19 12 9
0 12 5 9 10 -7 12 -55 14 -55 3z"/>
<path d="M5910 8981 c0 -25 6 -27 13 -6 4 8 2 17 -3 20 -6 4 -10 -3 -10 -14z"/>
<path d="M5891 8954 c0 -11 3 -14 6 -6 3 7 2 16 -1 19 -3 4 -6 -2 -5 -13z"/>
<path d="M6500 8991 c0 -20 13 -35 23 -25 7 8 -4 44 -14 44 -5 0 -9 -9 -9 -19z"/>
<path d="M6360 8960 c0 -5 5 -10 10 -10 6 0 10 5 10 10 0 6 -4 10 -10 10 -5 0
-10 -4 -10 -10z"/>
<path d="M7675 9060 c3 -5 1 -10 -4 -10 -6 0 -11 -4 -11 -10 0 -5 7 -7 17 -3
12 5 15 2 11 -14 -3 -13 0 -20 9 -20 9 0 13 11 11 34 -2 25 -7 33 -21 33 -10
0 -15 -4 -12 -10z"/>
<path d="M7655 9010 c3 -5 8 -10 11 -10 2 0 4 5 4 10 0 6 -5 10 -11 10 -5 0
-7 -4 -4 -10z"/>
<path d="M7670 8986 c0 -2 6 -9 14 -15 10 -9 15 -8 20 4 4 10 -1 15 -14 15
-11 0 -20 -2 -20 -4z"/>
<path d="M6883 9043 c9 -2 23 -2 30 0 6 3 -1 5 -18 5 -16 0 -22 -2 -12 -5z"/>
<path d="M7170 9050 c0 -5 7 -10 15 -10 8 0 15 5 15 10 0 6 -7 10 -15 10 -8 0
-15 -4 -15 -10z"/>
<path d="M6035 9020 c3 -5 8 -10 11 -10 2 0 4 5 4 10 0 6 -5 10 -11 10 -5 0
-7 -4 -4 -10z"/>
<path d="M6066 8998 c1 -32 3 -33 42 -34 23 0 42 3 42 8 0 4 -10 8 -22 8 -32
0 -54 15 -38 25 9 6 9 10 -1 16 -22 14 -24 11 -23 -23z"/>
<path d="M6190 8959 c0 -5 5 -7 10 -4 6 3 10 8 10 11 0 2 -4 4 -10 4 -5 0 -10
-5 -10 -11z"/>
<path d="M5380 9009 c0 -5 5 -7 12 -3 8 5 9 2 5 -10 -4 -10 -3 -15 3 -11 6 3
13 -1 17 -10 3 -10 0 -21 -8 -26 -11 -7 -11 -9 3 -9 20 0 25 14 20 52 -3 22
-10 28 -28 28 -13 0 -24 -5 -24 -11z"/>
<path d="M5610 9038 c-37 -40 -22 -190 21 -203 52 -17 79 24 79 120 0 57 -3
66 -26 84 -34 27 -48 26 -74 -1z"/>
<path d="M5750 9005 c0 -8 2 -15 4 -15 2 0 6 7 10 15 3 8 1 15 -4 15 -6 0 -10
-7 -10 -15z"/>
<path d="M5755 8960 c-4 -6 -11 -8 -16 -5 -5 4 -9 -1 -9 -9 0 -14 3 -14 20 -4
11 7 20 16 20 20 0 11 -8 10 -15 -2z"/>
<path d="M5542 8949 c2 -6 8 -10 13 -10 5 0 11 4 13 10 2 6 -4 11 -13 11 -9 0
-15 -5 -13 -11z"/>
<path d="M7540 8530 c0 -5 5 -10 10 -10 6 0 10 5 10 10 0 6 -4 10 -10 10 -5 0
-10 -4 -10 -10z"/>
<path d="M7592 8504 c4 -24 48 -33 48 -10 0 9 -4 16 -9 16 -5 0 -17 3 -26 6
-13 5 -16 2 -13 -12z"/>
<path d="M9988 8438 c2 -216 0 -407 -3 -425 -8 -44 -29 -47 -67 -12 -177 164
-408 289 -648 349 -47 12 -101 26 -120 32 -19 6 -136 13 -260 15 -222 5 -246
3 -400 -32 -36 -8 -90 -19 -120 -26 -30 -6 -71 -17 -90 -25 -19 -7 -57 -18
-85 -23 -27 -6 -90 -21 -140 -34 -49 -13 -135 -34 -190 -47 -55 -12 -116 -29
-135 -36 -19 -7 -57 -16 -84 -20 -27 -4 -61 -13 -75 -20 -14 -8 -34 -14 -43
-14 -22 0 -186 -38 -218 -51 -58 -22 -112 -14 -180 30 -123 77 -115 75 -199
61 -42 -6 -96 -18 -121 -25 -41 -11 -185 -48 -315 -78 -62 -15 -115 -43 -115
-61 0 -21 19 -114 35 -171 28 -100 77 -301 86 -350 4 -27 15 -68 23 -90 8 -22
15 -50 16 -62 0 -13 6 -40 14 -60 8 -21 24 -81 36 -133 12 -52 28 -114 36
-138 8 -23 14 -56 14 -73 0 -16 7 -43 15 -59 8 -16 19 -59 24 -95 5 -37 14
-72 19 -78 6 -7 13 -28 17 -49 4 -22 14 -38 25 -41 9 -2 55 4 101 15 46 10
115 25 153 34 38 8 76 19 85 23 9 5 39 12 66 16 28 4 61 13 75 20 14 7 45 15
70 18 36 5 52 14 82 47 21 23 38 47 38 54 0 7 9 23 20 36 11 13 20 28 20 34 1
28 50 64 115 84 153 46 295 82 329 82 43 0 60 -27 75 -120 6 -34 14 -67 19
-73 6 -7 13 -32 17 -57 4 -25 13 -65 21 -90 15 -49 60 -235 76 -315 5 -27 18
-79 29 -115 11 -36 19 -79 19 -96 0 -17 6 -37 14 -43 8 -6 17 -37 21 -68 4
-31 13 -70 20 -87 7 -17 21 -76 30 -131 9 -55 22 -116 30 -135 7 -19 16 -60
20 -90 4 -30 12 -64 18 -75 7 -11 17 -47 23 -80 6 -33 16 -73 22 -90 6 -16 27
-102 47 -190 20 -88 43 -178 50 -200 7 -22 16 -61 20 -88 3 -26 13 -59 21 -75
7 -15 14 -38 14 -51 0 -14 7 -50 14 -80 8 -31 25 -99 37 -151 11 -52 26 -107
31 -123 6 -15 16 -55 24 -90 13 -61 42 -187 69 -297 7 -30 20 -82 28 -115 15
-61 28 -115 48 -195 6 -25 15 -65 21 -90 5 -25 16 -67 23 -95 30 -117 38 -153
47 -200 5 -27 16 -64 24 -82 7 -17 14 -44 14 -60 0 -15 9 -55 19 -88 25 -77
38 -127 62 -245 11 -52 29 -125 39 -161 11 -36 20 -76 20 -90 0 -13 7 -37 15
-53 8 -16 18 -47 21 -70 3 -22 14 -67 25 -99 10 -31 19 -65 19 -76 0 -10 13
-70 30 -132 16 -63 30 -125 30 -139 0 -14 11 -56 25 -95 l24 -70 41 1 c22 0
57 6 77 12 61 18 154 42 208 53 28 5 67 16 88 24 20 8 48 15 61 15 16 0 42 20
82 63 76 82 251 302 319 400 l53 78 -12 42 c-28 91 -46 155 -61 212 -8 33 -31
119 -50 190 -19 72 -40 154 -45 184 -5 29 -13 58 -19 65 -5 6 -12 31 -15 56
-4 25 -13 61 -21 80 -7 19 -23 78 -35 130 -12 52 -28 113 -35 135 -7 22 -17
56 -20 75 -4 19 -11 40 -15 45 -5 6 -11 33 -15 60 -4 28 -13 61 -20 75 -7 14
-15 43 -19 65 -4 22 -13 56 -20 75 -8 19 -22 76 -31 125 -9 50 -23 104 -30
120 -7 17 -16 53 -20 80 -4 28 -13 57 -20 65 -7 8 -16 35 -20 60 -4 25 -12 54
-17 64 -6 11 -16 45 -23 75 -18 81 -63 258 -80 316 -8 28 -17 61 -20 75 -6 26
-21 80 -51 185 -9 33 -27 101 -40 150 -34 134 -45 173 -65 245 -28 101 -41
150 -54 210 -7 30 -23 89 -35 130 -11 41 -25 96 -30 122 -5 26 -13 56 -20 67
-6 11 -15 42 -20 68 -5 27 -19 80 -30 118 -11 39 -25 95 -31 125 -6 30 -17 63
-25 74 -8 11 -14 36 -14 56 -1 19 -9 53 -20 75 -11 22 -20 54 -20 70 0 17 -6
42 -14 57 -8 14 -17 46 -21 70 -11 64 -34 158 -51 201 -8 20 -14 51 -14 67 0
17 -9 47 -20 67 -11 21 -20 53 -20 71 0 18 -7 46 -15 62 -14 27 -13 32 7 67
13 21 30 45 38 54 14 15 53 63 68 84 24 34 58 47 173 66 179 30 378 12 494
-44 58 -28 228 -190 296 -281 l44 -59 3 -1196 c2 -826 0 -1219 -8 -1271 -10
-67 -35 -146 -61 -190 -5 -8 -13 -25 -19 -37 -5 -12 -21 -41 -35 -64 l-27 -41
17 -91 c16 -88 38 -147 53 -147 21 1 56 31 91 80 22 30 45 62 53 71 29 35 38
52 95 179 12 25 24 61 28 80 4 19 14 55 23 80 15 41 17 165 22 1327 4 1123 7
1284 20 1296 16 15 127 53 169 59 38 5 47 30 27 72 -9 20 -21 36 -26 36 -5 0
-11 8 -14 18 -3 9 -21 33 -39 53 -18 20 -57 68 -85 107 l-52 72 0 409 0 408
-50 77 c-45 69 -179 256 -183 256 -1 0 -1 -177 1 -392z m-890 -241 c51 -9 99
-20 105 -25 7 -5 32 -13 57 -17 25 -4 56 -13 70 -20 14 -7 50 -23 80 -36 30
-13 74 -36 98 -51 24 -15 45 -28 48 -28 3 0 40 -26 82 -57 78 -59 248 -224
359 -349 137 -154 148 -178 87 -190 -35 -6 -38 -4 -133 93 -99 101 -199 183
-224 183 -8 0 -20 6 -26 14 -13 15 -154 51 -238 61 -153 17 -428 0 -515 -32
-46 -17 -90 -62 -185 -192 -46 -62 -81 -91 -112 -91 -16 0 -53 -9 -81 -20 -28
-11 -60 -20 -72 -20 -12 0 -49 -9 -82 -19 -68 -21 -256 -68 -327 -81 -26 -5
-68 -16 -93 -24 -26 -9 -57 -16 -69 -16 -12 0 -35 -7 -52 -16 -16 -8 -50 -17
-75 -20 -25 -3 -58 -12 -75 -19 -32 -15 -321 -85 -348 -85 -18 0 -41 -30 -84
-110 -72 -134 -53 -120 -213 -155 -41 -9 -93 -23 -115 -31 -23 -8 -55 -14 -72
-14 -29 0 -32 3 -38 43 -4 23 -11 47 -16 53 -5 6 -14 38 -19 70 -6 33 -16 70
-22 84 -6 14 -14 43 -18 65 -4 22 -19 83 -33 135 -13 52 -28 115 -32 140 -3
25 -12 59 -20 75 -7 17 -17 53 -23 80 -5 28 -14 64 -20 80 -10 30 -30 120 -39
182 -5 29 -2 34 23 43 43 17 230 59 290 66 50 6 58 4 126 -37 40 -24 77 -49
81 -56 11 -19 131 -17 146 1 7 8 35 17 64 21 29 4 86 16 127 27 41 11 98 24
125 30 28 6 65 17 84 24 18 8 54 17 80 21 25 3 55 11 66 18 11 7 44 16 74 20
29 4 65 13 79 21 15 8 36 14 48 14 11 0 83 16 158 35 76 19 145 35 155 35 9 0
28 6 42 14 14 7 49 16 78 20 29 4 66 13 84 21 104 44 362 54 555 22z"/>
<path d="M7197 7793 c-4 -3 -7 -15 -7 -26 0 -27 48 -231 66 -282 8 -23 14 -48
14 -58 0 -9 9 -43 19 -74 11 -32 22 -80 26 -106 8 -61 38 -80 81 -52 25 16 26
20 19 78 -3 34 -11 70 -18 82 -6 11 -16 47 -23 80 -7 33 -22 96 -34 140 -12
44 -26 101 -30 127 -12 68 -35 98 -74 98 -18 0 -36 -3 -39 -7z"/>
<path d="M3807 8722 c-20 -21 -27 -38 -27 -68 0 -48 23 -78 171 -224 58 -58
111 -114 117 -125 12 -23 2 -47 -32 -81 -12 -11 -40 -40 -62 -65 -23 -24 -65
-66 -93 -93 -29 -27 -59 -62 -67 -79 -34 -64 -11 -139 45 -152 45 -10 70 2
124 56 27 27 52 49 57 49 5 0 12 9 15 20 3 11 13 20 21 20 8 0 14 5 14 10 0 6
63 73 139 149 107 106 139 143 135 158 -3 11 -104 117 -223 236 l-218 217 -45
0 c-35 0 -50 -6 -71 -28z"/>
<path d="M4505 7928 c-37 -20 -65 -60 -65 -93 0 -34 25 -63 73 -83 19 -8 115
-12 313 -12 271 0 287 1 314 20 53 38 51 127 -3 161 -30 18 -53 19 -322 19
-192 -1 -297 -4 -310 -12z"/>
<path d="M7266 6298 c-19 -51 -65 -169 -101 -263 -36 -93 -65 -173 -65 -178 0
-5 7 -7 16 -5 11 2 44 75 100 218 137 350 127 320 105 320 -15 0 -27 -21 -55
-92z"/>
<path d="M6850 6181 c-99 -52 -166 -93 -168 -103 -2 -12 39 -38 164 -102 92
-47 171 -86 176 -86 4 0 8 7 8 15 0 9 -57 44 -150 90 -85 42 -148 80 -145 86
4 5 69 41 145 79 76 38 142 74 145 81 21 33 -27 17 -175 -60z"/>
<path d="M7410 6250 c0 -16 29 -35 145 -92 80 -39 145 -77 145 -82 0 -6 -63
-42 -140 -79 -127 -61 -164 -87 -147 -104 3 -3 79 33 169 80 113 59 164 91
166 104 2 14 -33 36 -168 106 -149 77 -170 85 -170 67z"/>
<path d="M3900 5865 c-20 -24 -6 -28 15 -5 10 11 13 20 8 20 -6 0 -16 -7 -23
-15z"/>
<path d="M4130 5845 c0 -35 0 -35 45 -35 33 0 45 -4 45 -15 0 -11 -12 -15 -44
-15 l-44 0 1 -116 c1 -111 2 -115 22 -109 74 22 82 20 106 -26 17 -33 24 -67
27 -132 4 -71 7 -85 18 -76 7 6 37 12 66 14 29 2 56 4 61 4 4 1 7 114 7 251 0
314 14 290 -175 290 l-135 0 0 -35z"/>
<path d="M6940 5650 c0 -19 7 -20 90 -20 83 0 90 1 90 20 0 19 -7 20 -90 20
-83 0 -90 -1 -90 -20z"/>
<path d="M7680 5650 c0 -19 7 -20 90 -20 83 0 90 1 90 20 0 19 -7 20 -90 20
-83 0 -90 -1 -90 -20z"/>
<path d="M6947 5554 c-4 -4 -7 -16 -7 -26 0 -17 10 -18 183 -16 174 3 182 4
182 23 0 19 -8 20 -176 23 -96 1 -178 -1 -182 -4z"/>
<path d="M4168 5519 c-18 -7 -29 -20 -33 -39 -13 -58 16 -66 70 -19 29 25 33
34 25 50 -12 21 -22 22 -62 8z"/>
<path d="M4226 5429 c-22 -16 -52 -29 -68 -29 -31 0 -34 -10 -17 -59 13 -37
26 -40 35 -6 7 28 31 34 40 10 11 -28 22 -15 37 47 9 34 15 63 14 64 -1 2 -20
-11 -41 -27z"/>
<path d="M7310 5420 c0 -19 7 -20 90 -20 83 0 90 1 90 20 0 19 -7 20 -90 20
-83 0 -90 -1 -90 -20z"/>
<path d="M3492 5323 c2 -21 9 -29 27 -31 21 -3 23 -1 18 20 -4 12 -7 26 -7 31
0 4 -9 7 -21 7 -16 0 -20 -5 -17 -27z"/>
<path d="M4191 5267 c-10 -25 -7 -30 30 -65 23 -20 46 -40 52 -43 13 -9 2 -50
-23 -82 -21 -26 -21 -26 -61 -10 -54 21 -67 9 -50 -47 8 -28 9 -46 1 -59 -5
-11 -10 -36 -10 -55 0 -34 1 -35 28 -30 34 7 62 -16 62 -51 0 -29 -32 -49 -66
-41 -21 6 -24 3 -24 -19 0 -25 1 -26 62 -23 62 3 62 3 70 38 20 83 78 186 142
253 l37 38 -3 107 c-3 119 -9 128 -69 98 -17 -9 -35 -14 -39 -11 -5 3 -17 -11
-29 -30 -25 -44 -41 -45 -42 -2 0 17 -3 26 -6 20 -8 -21 -21 -15 -37 15 l-14
27 -11 -28z"/>
<path d="M4130 5240 c0 -5 5 -10 10 -10 6 0 10 5 10 10 0 6 -4 10 -10 10 -5 0
-10 -4 -10 -10z"/>
<path d="M4137 5183 c-3 -5 -4 -19 -3 -33 1 -18 10 -28 40 -39 36 -14 40 -13
52 4 12 17 11 22 -13 47 -25 26 -66 37 -76 21z"/>
<path d="M3551 5161 c-19 -12 -4 -51 20 -51 16 0 19 4 14 23 -10 31 -18 38
-34 28z"/>
<path d="M4423 4889 c-20 -25 -53 -102 -53 -126 0 -26 25 -31 54 -10 14 10 16
25 14 81 -2 56 -5 66 -15 55z"/>
</g>
</svg>
